<svg id="Capa_1" enable-background="new 0 0 512 512" height="512" viewBox="0 0 512 512" width="512" xmlns="http://www.w3.org/2000/svg"><path d="m112.987 512h70.058c4.143 0 7.5-3.358 7.5-7.5 0-2.559-1.283-4.815-3.24-6.169 14.346-21.552 26.022-45.23 35.584-68.914 5.019-3.115 10.44-5.502 16.148-7.098 3.989-1.116 6.319-5.254 5.203-9.243-1.116-3.988-5.252-6.321-9.242-5.203-1.499.419-2.982.882-4.448 1.388 1.586-4.442 4.275-12.376 5.428-15.925h40.043c1.114 3.427 3.805 11.377 5.425 15.916-2.527-.872-5.104-1.615-7.727-2.226-4.033-.94-8.065 1.569-9.006 5.604-.939 4.034 1.569 8.066 5.604 9.006 6.673 1.554 12.983 4.178 18.798 7.79 9.561 23.681 21.241 47.363 35.58 68.905-1.956 1.354-3.24 3.61-3.24 6.169 0 4.142 3.357 7.5 7.5 7.5h70.059c4.143 0 7.5-3.358 7.5-7.5s-3.357-7.5-7.5-7.5h-3.503c-29.289-30.72-51.712-68.344-68.899-107.961 1.474-1.627 2.553-3.642 3.074-5.918l2.769-12.113c3.009-.976 5.186-3.798 5.186-7.132 0-4.142-3.357-7.5-7.5-7.5-6.257 0-10.087 0-16.402 0-8.643-24.29-15.632-49.428-20.359-72.28 1.254-1.533 2.182-3.364 2.651-5.413l2.769-12.113c3.009-.976 5.186-3.798 5.186-7.132 0-4.142-3.357-7.5-7.5-7.5-3.681 0-2.885 0-6.58 0l-5.081-114.955c-.184-4.138-3.681-7.333-7.824-7.162-4.139.183-7.345 3.686-7.162 7.824l.442 10.001h-6.781v-62.499h4.02l.774 17.499c.179 4.025 3.498 7.168 7.487 7.168.112 0 .225-.002.337-.007 4.139-.183 7.345-3.686 7.161-7.824l-.809-18.307c4.426-2.244 7.474-6.828 7.474-12.12v-12.022c0-7.076-5.437-12.9-12.352-13.529v-6.84c0-7.818-6.303-14.182-14.093-14.3v-17.365c0-4.142-3.357-7.5-7.5-7.5s-7.5 3.358-7.5 7.5v17.365c-7.789.118-14.092 6.482-14.092 14.3v6.84c-6.915.629-12.352 6.453-12.352 13.529v12.021c0 5.293 3.047 9.877 7.474 12.121l-7.435 168.262c-3.69 0-2.894 0-6.581 0-4.143 0-7.5 3.358-7.5 7.5 0 3.334 2.177 6.156 5.185 7.132l2.77 12.114c.469 2.049 1.397 3.879 2.651 5.412-4.667 22.563-11.635 47.763-20.359 72.28-6.245 0-10.25 0-16.402 0-4.143 0-7.5 3.358-7.5 7.5 0 3.334 2.177 6.156 5.185 7.132l2.77 12.114c.521 2.276 1.601 4.291 3.074 5.917-16.979 39.138-39.33 76.949-68.899 107.961h-3.503c-4.143 0-7.5 3.358-7.5 7.5s3.359 7.5 7.502 7.5zm56.584-59.918h26.85c-2.548 5.208-5.162 10.249-7.836 15.126h-28.859c3.36-4.896 6.641-9.941 9.845-15.126zm16.916-30.126h23.243c-2.06 5.165-4.168 10.215-6.333 15.126h-24.989c2.76-4.927 5.452-9.971 8.079-15.126zm13.405-28.62h20.292c-1.346 4.029-3.026 8.863-4.75 13.62h-21.644c2.079-4.466 4.117-9 6.102-13.62zm118.318 13.62h-21.645c-1.617-4.449-3.447-9.716-4.75-13.62h20.292c1.986 4.62 4.024 9.154 6.103 13.62zm-2.632 45.126h26.85c3.204 5.185 6.485 10.23 9.845 15.126h-28.859c-2.674-4.877-5.287-9.918-7.836-15.126zm-6.976-15c-2.164-4.911-4.272-9.961-6.332-15.126h23.244c2.627 5.155 5.319 10.199 8.078 15.126zm33.363 59.918c-3.349-4.703-6.616-9.646-9.809-14.792h31.007c3.924 5.11 7.934 10.052 12.045 14.792zm-58.636-230.062-1.591 6.96c-9.927 0-40.65 0-51.476 0l-1.592-6.96zm-17.088 21.96h12.818c.876 4.154 1.963 9.011 3.267 14.424h-13.558c-.997-5.358-1.838-10.211-2.527-14.424zm-23.01 14.424h-13.558c1.304-5.412 2.391-10.27 3.267-14.424h12.817c-.688 4.213-1.528 9.066-2.526 14.424zm28.496 15h14.432c1.067 3.951 2.23 8.092 3.495 12.396h-15.228c-.973-4.291-1.874-8.437-2.699-12.396zm-45.886 0h14.432c-.825 3.96-1.726 8.105-2.7 12.396h-15.228c1.266-4.304 2.429-8.445 3.496-12.396zm30.159-2.032c2.636 13.108 5.708 26.539 9.24 40.086h-18.48c3.423-13.125 6.515-26.534 9.24-40.086zm22 29.428h16.281c1.126 3.482 2.31 7.036 3.56 10.658h-17.089c-.965-3.618-1.88-7.171-2.752-10.658zm-14.5-93.78v-14.087h10.77l.623 14.087zm-22.445-89.292h7.444v22.602h-8.443zm-1.661 37.603h9.106v22.602h-10.105zm24.106 0h9.107l.999 22.602h-10.106zm7.445-37.603.999 22.602h-8.444v-22.602zm-22.445-15h-6.781l2.762-62.499h4.019zm.908-107.792h13.185v6.088h-13.185zm-12.352 30.293v-9.205h37.888v9.205zm.676 167.704h10.768v14.087h-11.39zm-20.013 107.867h16.281c-.871 3.487-1.786 7.04-2.752 10.658h-17.089c1.25-3.622 2.434-7.176 3.56-10.658zm99.265 25.658-1.591 6.96c-19.512 0-106.694 0-118.786 0l-1.592-6.96zm-168.147 110.832h31.006c-3.193 5.146-6.459 10.088-9.808 14.792h-33.243c4.11-4.739 8.12-9.681 12.045-14.792z"/></svg>